<mxfile host="app.diagrams.net" agent="Mozilla/5.0 (Windows NT 10.0; Win64; x64) AppleWebKit/537.36 (KHTML, like Gecko) Chrome/127.0.0.0 Safari/537.36" version="24.7.6">
  <diagram name="Strona-1" id="KDL_ZjfYSf1K0ryxnOze">
    <mxGraphModel dx="1434" dy="738" grid="1" gridSize="10" guides="1" tooltips="1" connect="1" arrows="1" fold="1" page="1" pageScale="1" pageWidth="3300" pageHeight="2339" math="0" shadow="0">
      <root>
        <mxCell id="0" />
        <mxCell id="1" parent="0" />
        <mxCell id="L-AL70zZ9bdG62g0QL5k-18" style="edgeStyle=orthogonalEdgeStyle;rounded=0;orthogonalLoop=1;jettySize=auto;html=1;" edge="1" parent="1" source="L-AL70zZ9bdG62g0QL5k-1" target="L-AL70zZ9bdG62g0QL5k-3">
          <mxGeometry relative="1" as="geometry">
            <mxPoint x="580" y="420" as="targetPoint" />
          </mxGeometry>
        </mxCell>
        <mxCell id="L-AL70zZ9bdG62g0QL5k-19" value="&amp;nbsp;&lt;font style=&quot;font-size: 15px;&quot;&gt;Faktury sprzedaży&lt;/font&gt;&amp;nbsp;" style="edgeLabel;html=1;align=center;verticalAlign=middle;resizable=0;points=[];" vertex="1" connectable="0" parent="L-AL70zZ9bdG62g0QL5k-18">
          <mxGeometry x="-0.1632" y="1" relative="1" as="geometry">
            <mxPoint as="offset" />
          </mxGeometry>
        </mxCell>
        <mxCell id="L-AL70zZ9bdG62g0QL5k-1" value="&lt;b&gt;&lt;font style=&quot;font-size: 25px;&quot;&gt;EGERIA&lt;/font&gt;&lt;/b&gt;" style="verticalLabelPosition=bottom;html=1;verticalAlign=top;align=center;strokeColor=none;fillColor=#00BEF2;shape=mxgraph.azure.computer;pointerEvents=1;" vertex="1" parent="1">
          <mxGeometry x="840" y="309" width="200" height="150" as="geometry" />
        </mxCell>
        <mxCell id="L-AL70zZ9bdG62g0QL5k-2" value="&lt;br&gt;&lt;div style=&quot;line-height: 100%;&quot;&gt;&lt;div style=&quot;line-height: 100%;&quot;&gt;&lt;div style=&quot;line-height: 100%;&quot;&gt;&lt;div style=&quot;font-size: 16px; line-height: 100%;&quot;&gt;&lt;font style=&quot;font-size: 16px;&quot;&gt;Moduły:&lt;/font&gt;&lt;/div&gt;&lt;div style=&quot;font-size: 16px; line-height: 100%;&quot;&gt;&lt;font style=&quot;font-size: 16px;&quot;&gt;KG&lt;/font&gt;&lt;/div&gt;&lt;div style=&quot;font-size: 16px; line-height: 100%;&quot;&gt;&lt;font style=&quot;font-size: 16px;&quot;&gt;EK&lt;/font&gt;&lt;/div&gt;&lt;div style=&quot;font-size: 16px; line-height: 100%;&quot;&gt;&lt;font style=&quot;font-size: 16px;&quot;&gt;GM&lt;/font&gt;&lt;/div&gt;&lt;div style=&quot;font-size: 16px; line-height: 100%;&quot;&gt;&lt;font color=&quot;#00cc00&quot; style=&quot;font-size: 16px;&quot;&gt;KSeF*&lt;/font&gt;&lt;/div&gt;&lt;/div&gt;&lt;/div&gt;&lt;/div&gt;" style="text;strokeColor=none;fillColor=none;html=1;fontSize=24;fontStyle=1;verticalAlign=middle;align=left;" vertex="1" parent="1">
          <mxGeometry x="865" y="337" width="150" height="40" as="geometry" />
        </mxCell>
        <mxCell id="L-AL70zZ9bdG62g0QL5k-3" value="" style="verticalLabelPosition=bottom;html=1;verticalAlign=top;strokeWidth=1;align=center;outlineConnect=0;dashed=0;outlineConnect=0;shape=mxgraph.aws3d.oracleServer;fillColor=#ECECEC;strokeColor=#5E5E5E;aspect=fixed;" vertex="1" parent="1">
          <mxGeometry x="520" y="142" width="123" height="142" as="geometry" />
        </mxCell>
        <mxCell id="L-AL70zZ9bdG62g0QL5k-4" style="edgeStyle=orthogonalEdgeStyle;rounded=0;orthogonalLoop=1;jettySize=auto;html=1;" edge="1" parent="1" source="L-AL70zZ9bdG62g0QL5k-3">
          <mxGeometry relative="1" as="geometry">
            <mxPoint x="930" y="300" as="targetPoint" />
          </mxGeometry>
        </mxCell>
        <mxCell id="L-AL70zZ9bdG62g0QL5k-9" value="&lt;font style=&quot;font-size: 15px;&quot;&gt;&amp;nbsp;Faktury zakupowe&amp;nbsp;&lt;/font&gt;" style="edgeLabel;html=1;align=center;verticalAlign=middle;resizable=0;points=[];" vertex="1" connectable="0" parent="L-AL70zZ9bdG62g0QL5k-4">
          <mxGeometry y="-1" relative="1" as="geometry">
            <mxPoint x="-21" y="-1" as="offset" />
          </mxGeometry>
        </mxCell>
        <mxCell id="L-AL70zZ9bdG62g0QL5k-7" style="edgeStyle=orthogonalEdgeStyle;rounded=0;orthogonalLoop=1;jettySize=auto;html=1;startArrow=none;startFill=0;" edge="1" parent="1" source="L-AL70zZ9bdG62g0QL5k-6" target="L-AL70zZ9bdG62g0QL5k-3">
          <mxGeometry relative="1" as="geometry" />
        </mxCell>
        <mxCell id="L-AL70zZ9bdG62g0QL5k-13" value="&amp;nbsp;&lt;font style=&quot;font-size: 15px;&quot;&gt;Faktury zakupowe&amp;nbsp;&lt;/font&gt;" style="edgeLabel;html=1;align=center;verticalAlign=middle;resizable=0;points=[];" vertex="1" connectable="0" parent="L-AL70zZ9bdG62g0QL5k-7">
          <mxGeometry x="-0.1993" y="-4" relative="1" as="geometry">
            <mxPoint y="-4" as="offset" />
          </mxGeometry>
        </mxCell>
        <mxCell id="L-AL70zZ9bdG62g0QL5k-6" value="&lt;span style=&quot;font-size: 16px;&quot;&gt;&lt;b&gt;Bramka KSeF&lt;/b&gt;&lt;/span&gt;&lt;div&gt;&lt;span style=&quot;font-size: 16px;&quot;&gt;&lt;b&gt;Ministerstwo Finansów&lt;/b&gt;&lt;/span&gt;&lt;/div&gt;" style="image;points=[];aspect=fixed;html=1;align=center;shadow=0;dashed=0;image=img/lib/allied_telesis/storage/Datacenter_Server_Half_Rack_ToR.svg;" vertex="1" parent="1">
          <mxGeometry x="130" y="133" width="123.14" height="160" as="geometry" />
        </mxCell>
        <mxCell id="L-AL70zZ9bdG62g0QL5k-15" style="edgeStyle=orthogonalEdgeStyle;rounded=0;orthogonalLoop=1;jettySize=auto;html=1;" edge="1" parent="1" source="L-AL70zZ9bdG62g0QL5k-10">
          <mxGeometry relative="1" as="geometry">
            <mxPoint x="970" y="510" as="targetPoint" />
          </mxGeometry>
        </mxCell>
        <mxCell id="L-AL70zZ9bdG62g0QL5k-10" value="&lt;font style=&quot;font-size: 18px;&quot;&gt;&lt;b style=&quot;&quot;&gt;SUNCODE&lt;/b&gt;&lt;/font&gt;" style="image;aspect=fixed;html=1;points=[];align=center;fontSize=12;image=img/lib/azure2/general/Browser.svg;" vertex="1" parent="1">
          <mxGeometry x="1130" y="540" width="212.5" height="170" as="geometry" />
        </mxCell>
        <mxCell id="L-AL70zZ9bdG62g0QL5k-14" style="edgeStyle=orthogonalEdgeStyle;rounded=0;orthogonalLoop=1;jettySize=auto;html=1;entryX=0.489;entryY=-0.012;entryDx=0;entryDy=0;entryPerimeter=0;" edge="1" parent="1" source="L-AL70zZ9bdG62g0QL5k-1" target="L-AL70zZ9bdG62g0QL5k-10">
          <mxGeometry relative="1" as="geometry" />
        </mxCell>
        <mxCell id="L-AL70zZ9bdG62g0QL5k-16" value="&lt;font style=&quot;font-size: 20px;&quot;&gt;Proces obiegu faktur&lt;/font&gt;" style="text;html=1;align=center;verticalAlign=middle;whiteSpace=wrap;rounded=0;" vertex="1" parent="1">
          <mxGeometry x="1162" y="591" width="138" height="90" as="geometry" />
        </mxCell>
        <mxCell id="L-AL70zZ9bdG62g0QL5k-20" style="edgeStyle=orthogonalEdgeStyle;rounded=0;orthogonalLoop=1;jettySize=auto;html=1;startArrow=classic;startFill=1;exitX=1.015;exitY=0.688;exitDx=0;exitDy=0;exitPerimeter=0;endArrow=none;endFill=0;" edge="1" parent="1" source="L-AL70zZ9bdG62g0QL5k-6">
          <mxGeometry relative="1" as="geometry">
            <mxPoint x="282" y="243" as="sourcePoint" />
            <mxPoint x="519" y="243" as="targetPoint" />
          </mxGeometry>
        </mxCell>
        <mxCell id="L-AL70zZ9bdG62g0QL5k-21" value="&amp;nbsp; &lt;font style=&quot;font-size: 15px;&quot;&gt;Faktury sprzedażowe&amp;nbsp;&lt;/font&gt;" style="edgeLabel;html=1;align=center;verticalAlign=middle;resizable=0;points=[];" vertex="1" connectable="0" parent="L-AL70zZ9bdG62g0QL5k-20">
          <mxGeometry x="-0.1993" y="-4" relative="1" as="geometry">
            <mxPoint y="-4" as="offset" />
          </mxGeometry>
        </mxCell>
        <mxCell id="L-AL70zZ9bdG62g0QL5k-22" value="&amp;nbsp; Diagram wdrożenia KSeF" style="text;strokeColor=none;fillColor=none;html=1;fontSize=24;fontStyle=1;verticalAlign=middle;align=left;" vertex="1" parent="1">
          <mxGeometry x="30" y="20" width="100" height="80" as="geometry" />
        </mxCell>
        <mxCell id="L-AL70zZ9bdG62g0QL5k-23" value="." style="text;strokeColor=none;fillColor=none;html=1;fontSize=24;fontStyle=1;verticalAlign=middle;align=center;" vertex="1" parent="1">
          <mxGeometry x="1470" y="810" width="100" height="40" as="geometry" />
        </mxCell>
        <mxCell id="L-AL70zZ9bdG62g0QL5k-24" value="xml&lt;div&gt;&lt;br&gt;&lt;/div&gt;" style="sketch=0;outlineConnect=0;fontColor=#232F3E;gradientColor=none;fillColor=#232F3D;strokeColor=none;dashed=0;verticalLabelPosition=bottom;verticalAlign=top;align=center;html=1;fontSize=12;fontStyle=0;aspect=fixed;pointerEvents=1;shape=mxgraph.aws4.document;" vertex="1" parent="1">
          <mxGeometry x="420" y="150" width="27.77" height="38" as="geometry" />
        </mxCell>
        <mxCell id="L-AL70zZ9bdG62g0QL5k-26" value="xml&lt;div&gt;&lt;br&gt;&lt;/div&gt;" style="sketch=0;outlineConnect=0;fontColor=#232F3E;gradientColor=none;fillColor=#232F3D;strokeColor=none;dashed=0;verticalLabelPosition=bottom;verticalAlign=top;align=center;html=1;fontSize=12;fontStyle=0;aspect=fixed;pointerEvents=1;shape=mxgraph.aws4.document;" vertex="1" parent="1">
          <mxGeometry x="290" y="260" width="27.77" height="38" as="geometry" />
        </mxCell>
        <mxCell id="L-AL70zZ9bdG62g0QL5k-28" value="" style="aspect=fixed;sketch=0;html=1;dashed=0;whitespace=wrap;verticalLabelPosition=bottom;verticalAlign=top;fillColor=#2875E2;strokeColor=#ffffff;points=[[0.005,0.63,0],[0.1,0.2,0],[0.9,0.2,0],[0.5,0,0],[0.995,0.63,0],[0.72,0.99,0],[0.5,1,0],[0.28,0.99,0]];shape=mxgraph.kubernetes.icon2;kubernetesLabel=1;prIcon=api" vertex="1" parent="1">
          <mxGeometry x="1196" y="350.4" width="70" height="67.2" as="geometry" />
        </mxCell>
        <mxCell id="L-AL70zZ9bdG62g0QL5k-29" value="" style="aspect=fixed;sketch=0;html=1;dashed=0;whitespace=wrap;verticalLabelPosition=bottom;verticalAlign=top;fillColor=#2875E2;strokeColor=#ffffff;points=[[0.005,0.63,0],[0.1,0.2,0],[0.9,0.2,0],[0.5,0,0],[0.995,0.63,0],[0.72,0.99,0],[0.5,1,0],[0.28,0.99,0]];shape=mxgraph.kubernetes.icon2;kubernetesLabel=1;prIcon=api" vertex="1" parent="1">
          <mxGeometry x="940" y="591.4" width="70" height="67.2" as="geometry" />
        </mxCell>
        <mxCell id="L-AL70zZ9bdG62g0QL5k-31" value="Baza danych" style="text;html=1;align=center;verticalAlign=middle;whiteSpace=wrap;rounded=0;" vertex="1" parent="1">
          <mxGeometry x="552" y="110" width="60" height="30" as="geometry" />
        </mxCell>
      </root>
    </mxGraphModel>
  </diagram>
</mxfile>
